    <svg xmlns="http://www.w3.org/2000/svg" version="1.0" width="20px" height="20px" viewBox="0 0 1280.000000 1051.000000" preserveAspectRatio="xMidYMid meet">
<metadata>
Created by potrace 1.15, written by Peter Selinger 2001-2017
</metadata>
<g transform="translate(0.000000,1051.000000) scale(0.100000,-0.100000)" fill="#000000" stroke="none">
<path d="M5940 10499 c-1296 -64 -2544 -433 -3540 -1047 -1232 -760 -2045 -1824 -2309 -3022 -98 -444 -116 -921 -50 -1310 168 -997 853 -2079 1916 -3028 l163 -144 -6 -42 c-32 -230 -172 -475 -390 -686 -194 -187 -404 -336 -924 -655 -429 -263 -671 -432 -765 -535 l-30 -33 180 7 c1198 43 2459 410 3250 948 72 48 148 102 171 119 l40 30 198 -46 c536 -123 1198 -242 1735 -310 613 -78 1084 -84 1691 -24 2078 205 3862 1171 4827 2614 383 572 608 1189 685 1875 16 151 16 622 0 765 -34 288 -99 589 -177 823 -387 1156 -1290 2149 -2580 2836 -1178 627 -2636 936 -4085 865z"/>
</g>
</svg>