<svg width="40" data-e2e="" height="40" viewBox="0 0 48 48" fill="none" xmlns="http://www.w3.org/2000/svg"><circle cx="24" cy="24" r="24" fill="000" fill-opacity="1"></circle><path fill-rule="evenodd" clip-rule="evenodd" d="M21 16.9118C21 15.2513 20.8942 15.0909 20.709 15.0221C20.5238 14.9763 20.3122 14.9992 20.1799 15.1138L15.0741 19.5258H11.4762C11.2116 19.5258 11 19.7092 11 19.9384V28.084C11 28.3132 11.2116 28.4965 11.4762 28.4965H15.0741L20.1799 32.8862C20.3122 33.0008 20.5238 33.0237 20.709 32.9779C20.8942 32.9091 21 32.7487 21 32.5882V16.9118Z" fill="white"></path><path fill-rule="evenodd" clip-rule="evenodd" d="M35.098 18.9489C34.5998 18.4508 33.7921 18.4508 33.2939 18.949L30.1368 22.1061L26.9797 18.949C26.4815 18.4508 25.6738 18.4508 25.1756 18.9489C24.6775 19.4471 24.6775 20.2548 25.1756 20.753L28.3327 23.9101L25.1757 27.0672C24.6775 27.5654 24.6775 28.3731 25.1757 28.8713C25.6738 29.3694 26.4815 29.3694 26.9797 28.8713L30.1368 25.7142L33.2939 28.8713C33.7921 29.3694 34.5998 29.3694 35.0979 28.8713C35.5961 28.3731 35.5961 27.5654 35.0979 27.0672L31.9409 23.9101L35.098 20.753C35.5962 20.2548 35.5962 19.4471 35.098 18.9489Z" fill="white"></path></svg>